<mxfile host="app.diagrams.net" modified="2022-02-09T19:47:27.993Z" agent="5.0 (X11)" etag="ch0xf7lhboUw-d4RTXYs" version="16.5.5" type="github">
  <diagram id="V9UyOql_ToTHPF06Edq8" name="Page-1">
    <mxGraphModel dx="1483" dy="780" grid="1" gridSize="10" guides="1" tooltips="1" connect="1" arrows="1" fold="1" page="1" pageScale="1" pageWidth="850" pageHeight="1100" math="0" shadow="0">
      <root>
        <mxCell id="0" />
        <mxCell id="1" parent="0" />
        <mxCell id="Q14rdcWtYfDraQlmz2f_-1" value="Job polarisation" style="rounded=1;whiteSpace=wrap;html=1;fillColor=#dae8fc;strokeColor=#6c8ebf;" parent="1" vertex="1">
          <mxGeometry x="345" y="40" width="120" height="60" as="geometry" />
        </mxCell>
        <mxCell id="Q14rdcWtYfDraQlmz2f_-85" value="" style="edgeStyle=elbowEdgeStyle;shape=flexArrow;rounded=0;orthogonalLoop=1;jettySize=auto;elbow=vertical;html=1;fontSize=11;strokeWidth=1;fillColor=#d5e8d4;strokeColor=#82b366;" parent="1" source="Q14rdcWtYfDraQlmz2f_-12" target="Q14rdcWtYfDraQlmz2f_-1" edge="1">
          <mxGeometry relative="1" as="geometry" />
        </mxCell>
        <mxCell id="Q14rdcWtYfDraQlmz2f_-12" value="Automation" style="rounded=1;whiteSpace=wrap;html=1;fillColor=#fff2cc;strokeColor=#d6b656;" parent="1" vertex="1">
          <mxGeometry x="117.5" y="40" width="120" height="60" as="geometry" />
        </mxCell>
        <mxCell id="Q14rdcWtYfDraQlmz2f_-26" value="" style="edgeStyle=orthogonalEdgeStyle;rounded=0;orthogonalLoop=1;jettySize=auto;html=1;fontSize=11;" parent="1" source="Q14rdcWtYfDraQlmz2f_-18" edge="1">
          <mxGeometry relative="1" as="geometry">
            <mxPoint x="405" y="390" as="targetPoint" />
          </mxGeometry>
        </mxCell>
        <mxCell id="Q14rdcWtYfDraQlmz2f_-18" value="&lt;a href=&quot;https://www.ilo.org/shinyapps/bulkexplorer17/?lang=en&amp;amp;segment=indicator&amp;amp;id=EMP_TEMP_SEX_OC2_NB_A&quot;&gt;ILOSTAT&lt;/a&gt;, employment by ocupation" style="strokeWidth=2;html=1;shape=mxgraph.flowchart.start_1;whiteSpace=wrap;fillColor=#e1d5e7;strokeColor=#9673a6;fontSize=11;" parent="1" vertex="1">
          <mxGeometry x="336" y="430" width="138" height="70" as="geometry" />
        </mxCell>
        <mxCell id="Q14rdcWtYfDraQlmz2f_-33" value="" style="edgeStyle=orthogonalEdgeStyle;rounded=0;orthogonalLoop=1;jettySize=auto;html=1;fontSize=11;" parent="1" source="Q14rdcWtYfDraQlmz2f_-29" target="Q14rdcWtYfDraQlmz2f_-18" edge="1">
          <mxGeometry relative="1" as="geometry" />
        </mxCell>
        <mxCell id="Q14rdcWtYfDraQlmz2f_-39" value="" style="edgeStyle=orthogonalEdgeStyle;rounded=0;orthogonalLoop=1;jettySize=auto;html=1;fontSize=11;" parent="1" source="Q14rdcWtYfDraQlmz2f_-29" target="Q14rdcWtYfDraQlmz2f_-37" edge="1">
          <mxGeometry relative="1" as="geometry" />
        </mxCell>
        <mxCell id="Q14rdcWtYfDraQlmz2f_-29" value="&lt;div&gt;2000 - 2020&lt;/div&gt;&lt;div&gt;People employed &lt;br&gt;&lt;/div&gt;&lt;div&gt;&lt;i&gt;ocupational level&lt;/i&gt;&lt;br&gt;&lt;/div&gt;" style="shape=parallelogram;html=1;strokeWidth=2;perimeter=parallelogramPerimeter;whiteSpace=wrap;rounded=1;arcSize=12;size=0.23;fontSize=11;" parent="1" vertex="1">
          <mxGeometry x="330" y="330" width="150" height="60" as="geometry" />
        </mxCell>
        <mxCell id="Q14rdcWtYfDraQlmz2f_-35" value="" style="group;fillColor=#647687;fontColor=#ffffff;strokeColor=#314354;" parent="1" vertex="1" connectable="0">
          <mxGeometry x="35" y="540" width="935" height="80" as="geometry" />
        </mxCell>
        <mxCell id="Q14rdcWtYfDraQlmz2f_-2" value="" style="rounded=0;whiteSpace=wrap;html=1;fontStyle=1" parent="Q14rdcWtYfDraQlmz2f_-35" vertex="1">
          <mxGeometry width="935" height="80" as="geometry" />
        </mxCell>
        <mxCell id="Q14rdcWtYfDraQlmz2f_-10" value="Dependent variable" style="rounded=1;whiteSpace=wrap;html=1;fillColor=#dae8fc;strokeColor=#6c8ebf;" parent="Q14rdcWtYfDraQlmz2f_-35" vertex="1">
          <mxGeometry x="23.974358974358974" y="10" width="143.84615384615384" height="60" as="geometry" />
        </mxCell>
        <mxCell id="Q14rdcWtYfDraQlmz2f_-11" value="Independent variable" style="rounded=1;whiteSpace=wrap;html=1;fillColor=#fff2cc;strokeColor=#d6b656;" parent="Q14rdcWtYfDraQlmz2f_-35" vertex="1">
          <mxGeometry x="194.99923076923076" y="10" width="143.84615384615384" height="60" as="geometry" />
        </mxCell>
        <mxCell id="Q14rdcWtYfDraQlmz2f_-17" value="Source" style="strokeWidth=2;html=1;shape=mxgraph.flowchart.start_1;whiteSpace=wrap;fillColor=#e1d5e7;strokeColor=#9673a6;" parent="Q14rdcWtYfDraQlmz2f_-35" vertex="1">
          <mxGeometry x="545.0033333333333" y="10" width="119.87179487179486" height="60" as="geometry" />
        </mxCell>
        <mxCell id="Q14rdcWtYfDraQlmz2f_-28" value="Data" style="shape=parallelogram;html=1;strokeWidth=2;perimeter=parallelogramPerimeter;whiteSpace=wrap;rounded=1;arcSize=12;size=0.23;fontSize=11;" parent="Q14rdcWtYfDraQlmz2f_-35" vertex="1">
          <mxGeometry x="675" y="10" width="119.87179487179486" height="60" as="geometry" />
        </mxCell>
        <mxCell id="Q14rdcWtYfDraQlmz2f_-38" value="&lt;div&gt;Transformation&lt;/div&gt;&lt;div&gt;or process&lt;/div&gt;" style="rounded=1;whiteSpace=wrap;html=1;absoluteArcSize=1;arcSize=14;strokeWidth=2;fontSize=11;fillColor=#d5e8d4;strokeColor=#82b366;" parent="Q14rdcWtYfDraQlmz2f_-35" vertex="1">
          <mxGeometry x="812.6315384615384" y="10" width="101.89102564102564" height="60" as="geometry" />
        </mxCell>
        <mxCell id="QSGgm3x1fwg6DJeKjKM8-1" value="&lt;div&gt;Control variables&lt;/div&gt;" style="rounded=1;whiteSpace=wrap;html=1;fillColor=#647687;strokeColor=#314354;fontColor=#ffffff;" vertex="1" parent="Q14rdcWtYfDraQlmz2f_-35">
          <mxGeometry x="364.99923076923073" y="10" width="143.84615384615384" height="60" as="geometry" />
        </mxCell>
        <mxCell id="Q14rdcWtYfDraQlmz2f_-40" value="" style="edgeStyle=orthogonalEdgeStyle;rounded=0;orthogonalLoop=1;jettySize=auto;html=1;fontSize=11;" parent="1" source="Q14rdcWtYfDraQlmz2f_-37" target="Q14rdcWtYfDraQlmz2f_-1" edge="1">
          <mxGeometry relative="1" as="geometry" />
        </mxCell>
        <mxCell id="Q14rdcWtYfDraQlmz2f_-37" value="Calculate YoY change in each ocupation" style="rounded=1;whiteSpace=wrap;html=1;absoluteArcSize=1;arcSize=14;strokeWidth=2;fontSize=11;fillColor=#d5e8d4;strokeColor=#82b366;" parent="1" vertex="1">
          <mxGeometry x="358" y="230" width="95" height="70" as="geometry" />
        </mxCell>
        <mxCell id="Q14rdcWtYfDraQlmz2f_-49" value="" style="edgeStyle=orthogonalEdgeStyle;rounded=0;orthogonalLoop=1;jettySize=auto;html=1;fontSize=11;" parent="1" source="Q14rdcWtYfDraQlmz2f_-41" target="Q14rdcWtYfDraQlmz2f_-44" edge="1">
          <mxGeometry relative="1" as="geometry" />
        </mxCell>
        <mxCell id="Q14rdcWtYfDraQlmz2f_-41" value="Frey and Osborne (2013) automation predictions" style="strokeWidth=2;html=1;shape=mxgraph.flowchart.start_1;whiteSpace=wrap;fillColor=#e1d5e7;strokeColor=#9673a6;fontSize=11;" parent="1" vertex="1">
          <mxGeometry x="30" y="430" width="120" height="70" as="geometry" />
        </mxCell>
        <mxCell id="Q14rdcWtYfDraQlmz2f_-50" value="" style="edgeStyle=orthogonalEdgeStyle;rounded=0;orthogonalLoop=1;jettySize=auto;html=1;fontSize=11;" parent="1" source="Q14rdcWtYfDraQlmz2f_-42" target="Q14rdcWtYfDraQlmz2f_-43" edge="1">
          <mxGeometry relative="1" as="geometry" />
        </mxCell>
        <mxCell id="Q14rdcWtYfDraQlmz2f_-42" value="PIAAC, ocupational survey" style="strokeWidth=2;html=1;shape=mxgraph.flowchart.start_1;whiteSpace=wrap;fillColor=#e1d5e7;strokeColor=#9673a6;fontSize=11;" parent="1" vertex="1">
          <mxGeometry x="182.5" y="430" width="105" height="70" as="geometry" />
        </mxCell>
        <mxCell id="Q14rdcWtYfDraQlmz2f_-51" style="edgeStyle=orthogonalEdgeStyle;rounded=0;orthogonalLoop=1;jettySize=auto;html=1;fontSize=11;" parent="1" source="Q14rdcWtYfDraQlmz2f_-43" target="Q14rdcWtYfDraQlmz2f_-42" edge="1">
          <mxGeometry relative="1" as="geometry" />
        </mxCell>
        <mxCell id="Q14rdcWtYfDraQlmz2f_-58" style="edgeStyle=orthogonalEdgeStyle;rounded=0;orthogonalLoop=1;jettySize=auto;html=1;entryX=0.57;entryY=1.029;entryDx=0;entryDy=0;entryPerimeter=0;fontSize=11;" parent="1" source="Q14rdcWtYfDraQlmz2f_-43" target="Q14rdcWtYfDraQlmz2f_-56" edge="1">
          <mxGeometry relative="1" as="geometry" />
        </mxCell>
        <mxCell id="Q14rdcWtYfDraQlmz2f_-43" value="&lt;div&gt;2011-2018 &lt;br&gt;&lt;/div&gt;&lt;div&gt;&lt;i&gt;occupational level&lt;/i&gt;&lt;br&gt;&lt;/div&gt;" style="shape=parallelogram;html=1;strokeWidth=2;perimeter=parallelogramPerimeter;whiteSpace=wrap;rounded=1;arcSize=12;size=0.23;fontSize=11;" parent="1" vertex="1">
          <mxGeometry x="170" y="330" width="130" height="60" as="geometry" />
        </mxCell>
        <mxCell id="Q14rdcWtYfDraQlmz2f_-52" style="edgeStyle=orthogonalEdgeStyle;rounded=0;orthogonalLoop=1;jettySize=auto;html=1;entryX=0.5;entryY=0;entryDx=0;entryDy=0;entryPerimeter=0;fontSize=11;" parent="1" source="Q14rdcWtYfDraQlmz2f_-44" target="Q14rdcWtYfDraQlmz2f_-41" edge="1">
          <mxGeometry relative="1" as="geometry" />
        </mxCell>
        <mxCell id="Q14rdcWtYfDraQlmz2f_-55" value="" style="edgeStyle=orthogonalEdgeStyle;rounded=0;orthogonalLoop=1;jettySize=auto;html=1;fontSize=11;" parent="1" source="Q14rdcWtYfDraQlmz2f_-44" target="Q14rdcWtYfDraQlmz2f_-54" edge="1">
          <mxGeometry relative="1" as="geometry" />
        </mxCell>
        <mxCell id="Q14rdcWtYfDraQlmz2f_-44" value="&lt;div&gt;2013&lt;br&gt;&lt;/div&gt;&lt;div&gt;&lt;i&gt;occupational level&lt;/i&gt;&lt;br&gt;&lt;/div&gt;" style="shape=parallelogram;html=1;strokeWidth=2;perimeter=parallelogramPerimeter;whiteSpace=wrap;rounded=1;arcSize=12;size=0.23;fontSize=11;" parent="1" vertex="1">
          <mxGeometry x="25" y="330" width="130" height="60" as="geometry" />
        </mxCell>
        <mxCell id="Q14rdcWtYfDraQlmz2f_-62" style="edgeStyle=elbowEdgeStyle;rounded=0;orthogonalLoop=1;jettySize=auto;html=1;fontSize=11;strokeWidth=1;entryX=0.75;entryY=1;entryDx=0;entryDy=0;elbow=vertical;" parent="1" source="Q14rdcWtYfDraQlmz2f_-54" target="Q14rdcWtYfDraQlmz2f_-56" edge="1">
          <mxGeometry relative="1" as="geometry">
            <mxPoint x="180" y="250" as="targetPoint" />
            <Array as="points">
              <mxPoint x="195" y="265" />
            </Array>
          </mxGeometry>
        </mxCell>
        <mxCell id="Q14rdcWtYfDraQlmz2f_-54" value="Cross-map to ISCO8" style="rounded=1;whiteSpace=wrap;html=1;absoluteArcSize=1;arcSize=14;strokeWidth=2;fontSize=11;fillColor=#d5e8d4;strokeColor=#82b366;" parent="1" vertex="1">
          <mxGeometry x="42.5" y="230" width="95" height="70" as="geometry" />
        </mxCell>
        <mxCell id="Q14rdcWtYfDraQlmz2f_-63" style="edgeStyle=elbowEdgeStyle;rounded=0;orthogonalLoop=1;jettySize=auto;elbow=vertical;html=1;fontSize=11;strokeWidth=1;" parent="1" source="Q14rdcWtYfDraQlmz2f_-56" target="Q14rdcWtYfDraQlmz2f_-12" edge="1">
          <mxGeometry relative="1" as="geometry" />
        </mxCell>
        <mxCell id="Q14rdcWtYfDraQlmz2f_-81" style="edgeStyle=elbowEdgeStyle;rounded=0;orthogonalLoop=1;jettySize=auto;elbow=vertical;html=1;fontSize=11;strokeWidth=1;" parent="1" source="Q14rdcWtYfDraQlmz2f_-56" target="Q14rdcWtYfDraQlmz2f_-80" edge="1">
          <mxGeometry relative="1" as="geometry" />
        </mxCell>
        <mxCell id="Q14rdcWtYfDraQlmz2f_-56" value="Calculate automatibility probabilities, using Arntz et al. (2016) methodology" style="rounded=1;whiteSpace=wrap;html=1;absoluteArcSize=1;arcSize=14;strokeWidth=2;fontSize=11;fillColor=#d5e8d4;strokeColor=#82b366;" parent="1" vertex="1">
          <mxGeometry x="120" y="130" width="115" height="70" as="geometry" />
        </mxCell>
        <mxCell id="Q14rdcWtYfDraQlmz2f_-67" value="" style="edgeStyle=elbowEdgeStyle;rounded=0;orthogonalLoop=1;jettySize=auto;elbow=vertical;html=1;fontSize=11;strokeWidth=1;" parent="1" source="Q14rdcWtYfDraQlmz2f_-64" target="Q14rdcWtYfDraQlmz2f_-66" edge="1">
          <mxGeometry relative="1" as="geometry" />
        </mxCell>
        <UserObject label="&lt;a href=&quot;%3CmxGraphModel%3E%3Croot%3E%3CmxCell%20id%3D%220%22%2F%3E%3CmxCell%20id%3D%221%22%20parent%3D%220%22%2F%3E%3CmxCell%20id%3D%222%22%20value%3D%22Automation%22%20style%3D%22rounded%3D1%3BwhiteSpace%3Dwrap%3Bhtml%3D1%3BfillColor%3D%23fff2cc%3BstrokeColor%3D%23d6b656%3B%22%20vertex%3D%221%22%20parent%3D%221%22%3E%3CmxGeometry%20x%3D%22117.5%22%20y%3D%2240%22%20width%3D%22120%22%20height%3D%2260%22%20as%3D%22geometry%22%2F%3E%3C%2FmxCell%3E%3C%2Froot%3E%3C%2FmxGraphModel%3E&quot;&gt;ILOSTAT&lt;/a&gt;, mean hours worker by ocupation" link="https://www.ilo.org/shinyapps/bulkexplorer54/?lang=en&amp;segment=indicator&amp;id=HOW_XEES_AGE_OC2_NB_A" linkTarget="_blank" id="Q14rdcWtYfDraQlmz2f_-64">
          <mxCell style="strokeWidth=2;html=1;shape=mxgraph.flowchart.start_1;whiteSpace=wrap;fillColor=#e1d5e7;strokeColor=#9673a6;fontSize=11;" parent="1" vertex="1">
            <mxGeometry x="766" y="430" width="138" height="70" as="geometry" />
          </mxCell>
        </UserObject>
        <mxCell id="Q14rdcWtYfDraQlmz2f_-84" style="edgeStyle=orthogonalEdgeStyle;rounded=0;orthogonalLoop=1;jettySize=auto;html=1;entryX=0.75;entryY=1;entryDx=0;entryDy=0;fontSize=11;strokeWidth=1;shape=flexArrow;fillColor=#d5e8d4;strokeColor=#82b366;" parent="1" source="Q14rdcWtYfDraQlmz2f_-65" target="Q14rdcWtYfDraQlmz2f_-1" edge="1">
          <mxGeometry relative="1" as="geometry" />
        </mxCell>
        <mxCell id="Q14rdcWtYfDraQlmz2f_-65" value="COVID effect" style="rounded=1;whiteSpace=wrap;html=1;fillColor=#fff2cc;strokeColor=#d6b656;" parent="1" vertex="1">
          <mxGeometry x="510" y="130" width="120" height="60" as="geometry" />
        </mxCell>
        <mxCell id="Q14rdcWtYfDraQlmz2f_-69" value="" style="edgeStyle=elbowEdgeStyle;rounded=0;orthogonalLoop=1;jettySize=auto;elbow=vertical;html=1;fontSize=11;strokeWidth=1;" parent="1" source="Q14rdcWtYfDraQlmz2f_-66" target="Q14rdcWtYfDraQlmz2f_-68" edge="1">
          <mxGeometry relative="1" as="geometry" />
        </mxCell>
        <mxCell id="Q14rdcWtYfDraQlmz2f_-66" value="&lt;div&gt;2000 - 2020&lt;/div&gt;&lt;div&gt;Mean hours worked &lt;br&gt;&lt;/div&gt;&lt;div&gt;&lt;i&gt;ocupational level&lt;/i&gt;&lt;br&gt;&lt;/div&gt;" style="shape=parallelogram;html=1;strokeWidth=2;perimeter=parallelogramPerimeter;whiteSpace=wrap;rounded=1;arcSize=12;size=0.23;fontSize=11;" parent="1" vertex="1">
          <mxGeometry x="760" y="330" width="150" height="60" as="geometry" />
        </mxCell>
        <mxCell id="QSGgm3x1fwg6DJeKjKM8-36" value="" style="edgeStyle=orthogonalEdgeStyle;rounded=0;orthogonalLoop=1;jettySize=auto;html=1;" edge="1" parent="1" source="Q14rdcWtYfDraQlmz2f_-68" target="QSGgm3x1fwg6DJeKjKM8-34">
          <mxGeometry relative="1" as="geometry" />
        </mxCell>
        <mxCell id="Q14rdcWtYfDraQlmz2f_-68" value="Calculate YoY change in each ocupation" style="rounded=1;whiteSpace=wrap;html=1;absoluteArcSize=1;arcSize=14;strokeWidth=2;fontSize=11;fillColor=#d5e8d4;strokeColor=#82b366;" parent="1" vertex="1">
          <mxGeometry x="787.5" y="230" width="95" height="70" as="geometry" />
        </mxCell>
        <mxCell id="Q14rdcWtYfDraQlmz2f_-75" value="" style="edgeStyle=elbowEdgeStyle;rounded=0;orthogonalLoop=1;jettySize=auto;elbow=vertical;html=1;fontSize=11;strokeWidth=1;" parent="1" source="Q14rdcWtYfDraQlmz2f_-71" target="Q14rdcWtYfDraQlmz2f_-73" edge="1">
          <mxGeometry relative="1" as="geometry" />
        </mxCell>
        <UserObject label="&lt;a href=&quot;https://ec.europa.eu/jrc/sites/default/files/jrc121193.pdf&quot;&gt;Eurostat&lt;/a&gt;, teleworkability index" link="https://www.ilo.org/shinyapps/bulkexplorer54/?lang=en&amp;segment=indicator&amp;id=HOW_XEES_AGE_OC2_NB_A" linkTarget="_blank" id="Q14rdcWtYfDraQlmz2f_-71">
          <mxCell style="strokeWidth=2;html=1;shape=mxgraph.flowchart.start_1;whiteSpace=wrap;fillColor=#e1d5e7;strokeColor=#9673a6;fontSize=11;" parent="1" vertex="1">
            <mxGeometry x="924" y="430" width="138" height="70" as="geometry" />
          </mxCell>
        </UserObject>
        <mxCell id="QSGgm3x1fwg6DJeKjKM8-39" style="edgeStyle=orthogonalEdgeStyle;rounded=0;orthogonalLoop=1;jettySize=auto;html=1;entryX=0.5;entryY=1;entryDx=0;entryDy=0;" edge="1" parent="1" source="Q14rdcWtYfDraQlmz2f_-73" target="QSGgm3x1fwg6DJeKjKM8-37">
          <mxGeometry relative="1" as="geometry" />
        </mxCell>
        <mxCell id="Q14rdcWtYfDraQlmz2f_-73" value="&lt;div style=&quot;font-size: 11px&quot;&gt;2020&lt;/div&gt;&lt;div style=&quot;font-size: 11px&quot;&gt;Technical and social teleworkability &lt;br style=&quot;font-size: 11px&quot;&gt;&lt;/div&gt;&lt;div style=&quot;font-size: 11px&quot;&gt;&lt;i style=&quot;font-size: 11px&quot;&gt;ISCO88 ocupational level&lt;/i&gt;&lt;br style=&quot;font-size: 11px&quot;&gt;&lt;/div&gt;" style="shape=parallelogram;html=1;strokeWidth=2;perimeter=parallelogramPerimeter;whiteSpace=wrap;rounded=1;arcSize=12;size=0.23;fontSize=11;" parent="1" vertex="1">
          <mxGeometry x="900" y="320" width="186" height="80" as="geometry" />
        </mxCell>
        <mxCell id="Q14rdcWtYfDraQlmz2f_-80" value="SAME VALUE FOR ALL YEARS" style="rounded=0;whiteSpace=wrap;html=1;fontSize=11;fillColor=#f8cecc;strokeColor=#b85450;" parent="1" vertex="1">
          <mxGeometry x="268" y="140" width="90" height="40" as="geometry" />
        </mxCell>
        <mxCell id="Q14rdcWtYfDraQlmz2f_-83" style="edgeStyle=elbowEdgeStyle;rounded=0;orthogonalLoop=1;jettySize=auto;elbow=vertical;html=1;fontSize=11;strokeWidth=1;" parent="1" source="Q14rdcWtYfDraQlmz2f_-82" target="Q14rdcWtYfDraQlmz2f_-73" edge="1">
          <mxGeometry relative="1" as="geometry" />
        </mxCell>
        <mxCell id="Q14rdcWtYfDraQlmz2f_-82" value="SAME VALUE FOR ALL YEARS" style="rounded=0;whiteSpace=wrap;html=1;fontSize=11;fillColor=#f8cecc;strokeColor=#b85450;" parent="1" vertex="1">
          <mxGeometry x="1024.85" y="270" width="90" height="40" as="geometry" />
        </mxCell>
        <mxCell id="Q14rdcWtYfDraQlmz2f_-96" style="edgeStyle=elbowEdgeStyle;rounded=0;orthogonalLoop=1;jettySize=auto;elbow=vertical;html=1;fontSize=11;strokeWidth=1;shape=flexArrow;fillColor=#d5e8d4;strokeColor=#82b366;entryX=1;entryY=0.5;entryDx=0;entryDy=0;" parent="1" source="Q14rdcWtYfDraQlmz2f_-87" target="QSGgm3x1fwg6DJeKjKM8-2" edge="1">
          <mxGeometry relative="1" as="geometry" />
        </mxCell>
        <mxCell id="Q14rdcWtYfDraQlmz2f_-87" value="Offshorability" style="rounded=1;whiteSpace=wrap;html=1;fillColor=#fff2cc;strokeColor=#d6b656;" parent="1" vertex="1">
          <mxGeometry x="1123.85" y="40" width="120" height="60" as="geometry" />
        </mxCell>
        <mxCell id="Q14rdcWtYfDraQlmz2f_-90" style="edgeStyle=elbowEdgeStyle;rounded=0;orthogonalLoop=1;jettySize=auto;elbow=vertical;html=1;fontSize=11;strokeWidth=1;" parent="1" source="Q14rdcWtYfDraQlmz2f_-88" edge="1">
          <mxGeometry relative="1" as="geometry">
            <mxPoint x="1183.85" y="400" as="targetPoint" />
          </mxGeometry>
        </mxCell>
        <UserObject label="&lt;a href=&quot;https://www.lisdatacenter.org/resources/other-databases/?highlight=offshoring&quot;&gt;LIS&lt;/a&gt;, offshorability index" link="https://www.lisdatacenter.org/resources/other-databases/?highlight=offshoring" linkTarget="_blank" id="Q14rdcWtYfDraQlmz2f_-88">
          <mxCell style="strokeWidth=2;html=1;shape=mxgraph.flowchart.start_1;whiteSpace=wrap;fillColor=#e1d5e7;strokeColor=#9673a6;fontSize=11;" parent="1" vertex="1">
            <mxGeometry x="1114.85" y="430" width="138" height="70" as="geometry" />
          </mxCell>
        </UserObject>
        <mxCell id="Q14rdcWtYfDraQlmz2f_-95" value="" style="edgeStyle=elbowEdgeStyle;rounded=0;orthogonalLoop=1;jettySize=auto;elbow=vertical;html=1;fontSize=11;strokeWidth=1;" parent="1" target="Q14rdcWtYfDraQlmz2f_-91" edge="1">
          <mxGeometry relative="1" as="geometry">
            <mxPoint x="1183.85" y="330" as="sourcePoint" />
          </mxGeometry>
        </mxCell>
        <mxCell id="Q14rdcWtYfDraQlmz2f_-89" value="2018&lt;br&gt;&lt;div style=&quot;font-size: 11px&quot;&gt;Offshorability index &lt;br style=&quot;font-size: 11px&quot;&gt;&lt;/div&gt;&lt;div style=&quot;font-size: 11px&quot;&gt;&lt;i style=&quot;font-size: 11px&quot;&gt;ISCO88 ocupational level&lt;/i&gt;&lt;br style=&quot;font-size: 11px&quot;&gt;&lt;/div&gt;" style="shape=parallelogram;html=1;strokeWidth=2;perimeter=parallelogramPerimeter;whiteSpace=wrap;rounded=1;arcSize=12;size=0.23;fontSize=11;" parent="1" vertex="1">
          <mxGeometry x="1098.85" y="330" width="170" height="70" as="geometry" />
        </mxCell>
        <mxCell id="Q14rdcWtYfDraQlmz2f_-94" style="edgeStyle=elbowEdgeStyle;rounded=0;orthogonalLoop=1;jettySize=auto;elbow=vertical;html=1;fontSize=11;strokeWidth=1;" parent="1" source="Q14rdcWtYfDraQlmz2f_-91" target="Q14rdcWtYfDraQlmz2f_-87" edge="1">
          <mxGeometry relative="1" as="geometry" />
        </mxCell>
        <mxCell id="Q14rdcWtYfDraQlmz2f_-91" value="Aggregate to ISCO08 level" style="rounded=1;whiteSpace=wrap;html=1;absoluteArcSize=1;arcSize=14;strokeWidth=2;fontSize=11;fillColor=#d5e8d4;strokeColor=#82b366;" parent="1" vertex="1">
          <mxGeometry x="1136.35" y="210" width="95" height="70" as="geometry" />
        </mxCell>
        <mxCell id="Q14rdcWtYfDraQlmz2f_-93" style="edgeStyle=elbowEdgeStyle;rounded=0;orthogonalLoop=1;jettySize=auto;elbow=vertical;html=1;entryX=1;entryY=0.5;entryDx=0;entryDy=0;fontSize=11;strokeWidth=1;" parent="1" source="Q14rdcWtYfDraQlmz2f_-92" edge="1">
          <mxGeometry relative="1" as="geometry">
            <mxPoint x="1249.2999999999997" y="365" as="targetPoint" />
          </mxGeometry>
        </mxCell>
        <mxCell id="Q14rdcWtYfDraQlmz2f_-92" value="SAME VALUE FOR ALL YEARS" style="rounded=0;whiteSpace=wrap;html=1;fontSize=11;fillColor=#f8cecc;strokeColor=#b85450;" parent="1" vertex="1">
          <mxGeometry x="1297.85" y="340" width="90" height="40" as="geometry" />
        </mxCell>
        <mxCell id="QSGgm3x1fwg6DJeKjKM8-2" value="&lt;div&gt;Control variables&lt;/div&gt;" style="rounded=1;whiteSpace=wrap;html=1;fillColor=#647687;strokeColor=#314354;fontColor=#ffffff;" vertex="1" parent="1">
          <mxGeometry x="769.9992307692307" y="40" width="143.84615384615384" height="60" as="geometry" />
        </mxCell>
        <mxCell id="QSGgm3x1fwg6DJeKjKM8-11" value="" style="edgeStyle=orthogonalEdgeStyle;rounded=0;orthogonalLoop=1;jettySize=auto;html=1;" edge="1" parent="1" source="QSGgm3x1fwg6DJeKjKM8-8" target="QSGgm3x1fwg6DJeKjKM8-9">
          <mxGeometry relative="1" as="geometry" />
        </mxCell>
        <UserObject label="&lt;div&gt;CSSE, John Hopkins&lt;/div&gt;&lt;div&gt;Covid cases/deaths&lt;br&gt;&lt;/div&gt;" link="https://github.com/Dmusulas/COVID-19" id="QSGgm3x1fwg6DJeKjKM8-8">
          <mxCell style="strokeWidth=2;html=1;shape=mxgraph.flowchart.start_1;whiteSpace=wrap;fillColor=#e1d5e7;strokeColor=#9673a6;fontSize=11;" vertex="1" parent="1">
            <mxGeometry x="501" y="430" width="138" height="70" as="geometry" />
          </mxCell>
        </UserObject>
        <mxCell id="QSGgm3x1fwg6DJeKjKM8-12" value="" style="edgeStyle=orthogonalEdgeStyle;rounded=0;orthogonalLoop=1;jettySize=auto;html=1;" edge="1" parent="1" source="QSGgm3x1fwg6DJeKjKM8-9" target="QSGgm3x1fwg6DJeKjKM8-10">
          <mxGeometry relative="1" as="geometry" />
        </mxCell>
        <mxCell id="QSGgm3x1fwg6DJeKjKM8-9" value="&lt;div&gt;2019-2021&lt;/div&gt;&lt;div&gt;Cases of COVID&lt;br&gt;&lt;/div&gt;&lt;div&gt;&lt;i&gt;Regional level&lt;/i&gt;&lt;br&gt;&lt;/div&gt;" style="shape=parallelogram;html=1;strokeWidth=2;perimeter=parallelogramPerimeter;whiteSpace=wrap;rounded=1;arcSize=12;size=0.23;fontSize=11;" vertex="1" parent="1">
          <mxGeometry x="495" y="330" width="150" height="60" as="geometry" />
        </mxCell>
        <mxCell id="QSGgm3x1fwg6DJeKjKM8-25" value="" style="edgeStyle=orthogonalEdgeStyle;rounded=0;orthogonalLoop=1;jettySize=auto;html=1;" edge="1" parent="1" source="QSGgm3x1fwg6DJeKjKM8-10" target="Q14rdcWtYfDraQlmz2f_-65">
          <mxGeometry relative="1" as="geometry" />
        </mxCell>
        <mxCell id="QSGgm3x1fwg6DJeKjKM8-10" value="Add to national level and calculate cumulative to find annual stats." style="rounded=1;whiteSpace=wrap;html=1;absoluteArcSize=1;arcSize=14;strokeWidth=2;fontSize=11;fillColor=#d5e8d4;strokeColor=#82b366;" vertex="1" parent="1">
          <mxGeometry x="522.5" y="220" width="95" height="70" as="geometry" />
        </mxCell>
        <mxCell id="QSGgm3x1fwg6DJeKjKM8-24" value="" style="edgeStyle=orthogonalEdgeStyle;rounded=0;orthogonalLoop=1;jettySize=auto;html=1;" edge="1" parent="1" source="QSGgm3x1fwg6DJeKjKM8-23" target="QSGgm3x1fwg6DJeKjKM8-10">
          <mxGeometry relative="1" as="geometry" />
        </mxCell>
        <mxCell id="QSGgm3x1fwg6DJeKjKM8-23" value="I will use either cases or deaths per capita" style="rounded=0;whiteSpace=wrap;html=1;fontSize=11;fillColor=#f8cecc;strokeColor=#b85450;" vertex="1" parent="1">
          <mxGeometry x="650" y="235" width="90" height="40" as="geometry" />
        </mxCell>
        <mxCell id="QSGgm3x1fwg6DJeKjKM8-34" value="Resilience to quarantine" style="rounded=1;whiteSpace=wrap;html=1;fillColor=#fff2cc;strokeColor=#d6b656;" vertex="1" parent="1">
          <mxGeometry x="774.9999999999999" y="135" width="120" height="60" as="geometry" />
        </mxCell>
        <mxCell id="QSGgm3x1fwg6DJeKjKM8-37" value="Teleworkability " style="rounded=1;whiteSpace=wrap;html=1;fillColor=#fff2cc;strokeColor=#d6b656;" vertex="1" parent="1">
          <mxGeometry x="932.9999999999999" y="140" width="120" height="60" as="geometry" />
        </mxCell>
        <mxCell id="QSGgm3x1fwg6DJeKjKM8-40" style="edgeStyle=elbowEdgeStyle;rounded=0;orthogonalLoop=1;jettySize=auto;elbow=vertical;html=1;fontSize=11;strokeWidth=1;shape=flexArrow;fillColor=#d5e8d4;strokeColor=#82b366;entryX=0.75;entryY=1;entryDx=0;entryDy=0;exitX=0.5;exitY=0;exitDx=0;exitDy=0;" edge="1" parent="1" source="QSGgm3x1fwg6DJeKjKM8-37" target="QSGgm3x1fwg6DJeKjKM8-2">
          <mxGeometry relative="1" as="geometry">
            <mxPoint x="1133.85" y="80" as="sourcePoint" />
            <mxPoint x="923.8453846153848" y="80" as="targetPoint" />
          </mxGeometry>
        </mxCell>
        <mxCell id="QSGgm3x1fwg6DJeKjKM8-41" style="edgeStyle=elbowEdgeStyle;rounded=0;orthogonalLoop=1;jettySize=auto;elbow=vertical;html=1;fontSize=11;strokeWidth=1;shape=flexArrow;fillColor=#d5e8d4;strokeColor=#82b366;entryX=0.5;entryY=1;entryDx=0;entryDy=0;" edge="1" parent="1" target="QSGgm3x1fwg6DJeKjKM8-2">
          <mxGeometry relative="1" as="geometry">
            <mxPoint x="842" y="135" as="sourcePoint" />
            <mxPoint x="720.0038461538462" y="95" as="targetPoint" />
          </mxGeometry>
        </mxCell>
        <mxCell id="QSGgm3x1fwg6DJeKjKM8-42" style="edgeStyle=elbowEdgeStyle;rounded=0;orthogonalLoop=1;jettySize=auto;elbow=vertical;html=1;fontSize=11;strokeWidth=1;shape=flexArrow;fillColor=#d5e8d4;strokeColor=#82b366;" edge="1" parent="1">
          <mxGeometry relative="1" as="geometry">
            <mxPoint x="770" y="70" as="sourcePoint" />
            <mxPoint x="470" y="70" as="targetPoint" />
          </mxGeometry>
        </mxCell>
      </root>
    </mxGraphModel>
  </diagram>
</mxfile>
